<?xml version="1.0" standalone="no"?>
<!DOCTYPE svg PUBLIC "-//W3C//DTD SVG 20010904//EN"
 "http://www.w3.org/TR/2001/REC-SVG-20010904/DTD/svg10.dtd">
<svg version="1.0" xmlns="http://www.w3.org/2000/svg"
 width="1024.000000pt" height="1024.000000pt" viewBox="0 0 1024.000000 1024.000000"
 preserveAspectRatio="xMidYMid meet">

<g transform="translate(0.000000,1024.000000) scale(0.100000,-0.100000)"
fill="#000000" stroke="none">
<path d="M0 5120 l0 -5120 5120 0 5120 0 0 5120 0 5120 -5120 0 -5120 0 0
-5120z m5480 3889 c541 -37 1080 -204 1604 -498 120 -67 325 -200 411 -267
210 -163 411 -352 557 -524 49 -58 97 -114 107 -125 19 -20 111 -145 180 -245
87 -126 200 -327 262 -465 17 -38 39 -89 50 -112 10 -24 28 -62 38 -85 43 -96
29 -86 -24 17 -102 199 -236 424 -278 470 -10 11 -32 41 -49 68 -17 26 -34 47
-38 47 -3 0 -13 12 -22 28 -15 25 -24 37 -81 102 -12 14 -37 45 -56 70 -38 50
-110 120 -123 120 -5 0 -6 -6 -1 -12 23 -38 87 -133 99 -147 36 -42 101 -134
119 -168 11 -20 29 -47 40 -59 11 -12 35 -53 54 -91 19 -37 40 -75 46 -83 6
-8 21 -38 33 -66 12 -28 35 -80 51 -115 52 -114 98 -233 115 -294 36 -139 75
-325 81 -390 3 -38 10 -119 16 -180 25 -255 -3 -600 -70 -855 -49 -189 -97
-313 -130 -334 -11 -7 -11 -10 0 -17 9 -6 3 -7 -16 -3 -16 4 -34 10 -40 14 -5
4 -23 10 -38 14 -15 4 -25 10 -23 15 3 5 -4 12 -17 16 -19 6 -20 8 -4 12 18 5
18 5 0 18 -13 9 -22 10 -30 3 -19 -15 -43 8 -43 41 0 19 -9 32 -30 44 -16 10
-30 22 -30 28 0 16 18 10 34 -13 9 -12 16 -18 16 -12 0 6 -20 32 -45 58 -25
27 -45 42 -45 35 0 -23 -15 2 -15 27 -1 15 5 24 15 24 8 0 0 8 -18 17 -39 19
-51 41 -31 54 11 7 11 9 -3 9 -10 0 -27 9 -38 20 -18 18 -18 20 -2 21 16 1 16
2 0 6 -10 2 -18 9 -18 14 0 5 8 9 18 10 11 1 8 4 -8 8 -16 4 -26 15 -28 30 -2
14 -15 27 -35 36 -26 11 -28 14 -11 18 15 4 14 5 -6 6 -24 2 -24 2 -6 16 19
14 18 15 -9 15 -23 0 -26 3 -17 12 18 18 14 31 -8 25 -11 -3 -20 -2 -20 3 0 4
-9 10 -20 13 -25 7 -26 24 -1 32 11 3 22 13 25 21 5 13 -5 14 -76 8 -63 -5
-79 -4 -73 5 4 7 16 11 26 8 11 -3 19 -1 19 3 0 5 13 11 30 15 45 10 51 29 7
22 -21 -3 -37 -3 -37 -1 0 10 29 34 41 34 10 0 10 3 1 12 -8 8 -15 8 -24 1
-21 -17 -72 -24 -88 -12 -12 8 -10 9 8 4 13 -4 22 -2 22 4 0 6 8 20 18 30 33
37 42 50 42 62 0 7 -10 3 -23 -9 -27 -26 -39 -28 -31 -7 4 8 1 15 -5 15 -8 0
-7 8 3 22 21 30 20 45 -2 26 -11 -10 -24 -13 -37 -8 -18 7 -18 8 5 11 16 3 26
11 27 24 l3 20 -9 -20 c-5 -11 -10 -17 -10 -12 -1 4 0 9 2 11 5 8 -37 46 -51
46 -8 0 -12 6 -9 13 21 51 21 50 -1 38 -21 -11 -21 -10 -11 15 7 19 6 31 -1
38 -7 7 -10 5 -10 -7 0 -9 -4 -17 -9 -17 -6 0 -6 12 1 31 6 16 8 33 4 36 -3 4
-6 1 -6 -6 0 -15 -45 -61 -60 -61 -5 0 -9 3 -9 8 3 19 -2 33 -10 27 -17 -10
-21 12 -6 25 8 7 15 22 15 33 0 20 0 20 -14 2 -13 -17 -14 -16 -31 18 -14 30
-15 40 -5 52 7 8 9 15 5 15 -4 0 -14 -8 -22 -17 -13 -16 -14 -14 -9 21 3 22
11 43 18 48 9 5 10 8 1 8 -7 0 -16 -7 -21 -16 -8 -15 -12 -14 -33 7 -13 13
-23 27 -21 32 1 4 -16 4 -38 1 -31 -5 -40 -4 -38 6 2 8 -9 20 -24 27 -26 13
-39 43 -19 43 5 0 11 9 14 21 3 12 9 19 14 16 5 -3 23 -2 42 1 32 7 32 7 14
28 -10 11 -23 19 -29 17 -6 -2 -21 15 -32 37 -13 28 -23 37 -28 29 -4 -7 -2
-15 4 -17 21 -7 13 -25 -8 -19 -27 7 -27 -28 -1 -45 10 -6 17 -18 14 -25 -7
-17 -26 -17 -20 0 2 6 -9 20 -25 30 -22 13 -27 21 -20 34 17 29 -22 118 -59
137 -12 6 -26 22 -31 36 -7 20 -7 23 3 13 7 -7 20 -13 28 -13 11 0 8 7 -8 24
-14 15 -29 22 -39 19 -10 -4 -13 -2 -8 5 9 15 1 15 -25 2 -13 -7 -19 -7 -19 0
0 5 7 10 16 10 11 0 14 5 10 17 -5 11 1 24 16 36 13 10 18 16 12 13 -16 -8
-56 38 -49 56 4 10 -5 23 -24 38 -29 20 -43 60 -21 60 6 0 10 5 10 11 0 8 -5
7 -15 -1 -19 -16 -34 -5 -17 12 16 16 15 47 -1 54 -7 2 -14 16 -15 30 -2 27
-21 68 -22 47 0 -7 -5 -13 -11 -13 -6 0 -9 7 -5 15 3 8 1 15 -4 15 -14 0 -13
33 1 47 9 9 8 16 -4 27 -19 19 -33 20 -41 4 -3 -7 -3 -2 0 12 3 14 13 31 22
37 8 7 13 16 9 19 -3 4 -2 15 4 26 8 15 7 24 -4 36 -27 31 -41 67 -43 111 -3
37 -1 41 10 26 7 -9 21 -16 32 -13 18 3 18 4 -4 26 -12 12 -22 26 -22 31 0 5
-15 25 -33 43 -18 19 -31 40 -29 48 3 7 0 10 -6 6 -6 -3 -13 -2 -16 3 -3 5 0
11 8 14 12 5 26 -11 25 -29 -1 -10 35 -33 43 -28 5 3 8 0 8 -5 0 -6 8 -11 18
-11 14 0 15 -2 2 -9 -8 -6 -18 -7 -24 -4 -5 3 -6 1 -2 -5 5 -8 15 -8 32 -2 14
6 30 8 35 4 5 -3 9 0 9 5 0 6 -6 11 -13 11 -7 0 -22 7 -33 16 -10 8 -13 13 -7
9 9 -4 11 -1 6 11 -4 11 -8 13 -11 6 -10 -30 -53 3 -52 40 1 7 8 0 16 -15 9
-16 18 -26 21 -23 3 3 0 12 -6 20 -7 8 -10 24 -6 36 3 11 2 20 -3 20 -5 0 -14
10 -21 23 -11 22 -11 22 -6 -3 l5 -25 -12 25 c-7 14 -25 43 -40 64 -16 21 -28
45 -28 51 0 15 -28 28 -41 19 -16 -10 -40 17 -34 37 5 15 1 19 -19 19 -14 0
-27 4 -30 9 -9 14 61 -5 90 -24 14 -9 30 -15 37 -12 6 2 -1 12 -16 21 -29 19
-35 41 -14 49 7 3 4 6 -7 6 -17 1 -17 2 -2 26 9 14 12 25 7 25 -5 0 -13 -9
-16 -20 -3 -11 -12 -20 -18 -20 -7 0 -6 -4 3 -10 13 -9 13 -11 0 -19 -19 -13
-29 -5 -23 18 6 22 -31 49 -42 31 -3 -5 -12 -10 -18 -9 -9 0 -9 2 1 6 6 2 12
9 12 15 0 6 -7 7 -16 4 -14 -5 -15 -4 -4 9 10 12 10 15 -4 15 -9 0 -16 4 -16
10 0 5 -10 14 -22 21 -18 10 -20 9 -15 -5 4 -10 3 -15 -3 -11 -13 8 -13 45 -1
45 5 0 11 -6 14 -12 2 -7 8 -10 12 -6 4 4 2 15 -5 24 -11 12 -11 17 -1 23 9 6
8 11 -4 21 -14 12 -16 12 -15 -1 4 -24 0 -43 -7 -36 -3 4 -13 1 -21 -6 -13
-11 -14 -9 -2 10 12 19 12 24 -4 42 -11 12 -15 21 -10 21 5 0 -2 7 -14 16 -12
8 -22 24 -22 35 0 10 -5 19 -12 19 -6 0 -22 10 -35 22 -21 19 -26 20 -34 8 -9
-12 -10 -11 -6 6 7 33 -8 49 -44 46 -21 -3 -29 0 -25 7 5 7 -1 11 -14 11 -14
0 -20 5 -17 13 3 9 -2 13 -15 13 -12 -1 -22 6 -23 16 -3 18 -28 48 -40 48 -4
0 0 -11 8 -24 14 -21 15 -25 1 -30 -9 -3 -12 -2 -9 5 10 15 -14 39 -32 32 -11
-4 -14 -1 -11 13 2 10 10 18 16 17 7 -2 12 2 12 7 0 6 -11 10 -25 10 -15 0
-25 -6 -25 -14 0 -8 -4 -18 -10 -21 -5 -3 -7 0 -4 8 6 16 -23 36 -81 56 -29
10 -40 11 -43 2 -3 -9 -8 -9 -19 0 -12 10 -16 10 -24 -2 -7 -11 -9 -11 -9 4 0
11 8 17 23 18 l22 2 -22 4 c-28 5 -30 23 -4 23 11 0 23 5 27 12 4 7 3 8 -4 4
-7 -4 -12 -2 -12 4 0 7 -20 10 -57 8 -53 -3 -58 -5 -57 -25 0 -13 -5 -23 -13
-23 -7 0 -13 5 -13 11 0 8 -4 8 -15 -1 -8 -6 -20 -10 -27 -7 -9 4 -7 6 3 6 18
1 32 25 22 35 -4 3 -13 0 -21 -7 -12 -9 -16 -9 -19 1 -3 6 -9 10 -14 6 -5 -3
-9 0 -9 7 0 6 8 9 19 6 12 -3 27 3 37 14 21 23 7 25 -42 4 -20 -8 -33 -19 -29
-25 4 -6 -5 -10 -22 -10 l-28 0 25 20 c14 10 21 22 17 26 -4 4 -13 2 -19 -4
-15 -15 -45 -16 -53 -2 -3 5 -1 18 5 27 9 16 10 15 5 -4 -7 -25 6 -31 23 -10
15 18 -30 72 -53 64 -9 -4 -13 -12 -9 -19 5 -8 0 -9 -17 -5 -13 4 -33 7 -44 7
-20 1 -20 1 -1 15 18 14 18 15 1 21 -10 4 -26 2 -36 -4 -26 -16 -29 -15 -30
11 -1 16 -2 18 -6 5 -3 -13 -15 -18 -39 -18 -19 0 -34 4 -34 10 0 5 7 7 15 4
8 -4 15 -1 15 5 0 9 -20 14 -46 10 -4 0 -11 5 -16 13 -5 8 -6 2 -2 -16 5 -21
4 -27 -5 -22 -6 4 -11 14 -11 21 0 24 -35 37 -64 23 -21 -9 -29 -8 -43 4 -19
17 -95 18 -160 3 -28 -6 -31 -5 -27 12 5 17 -2 19 -92 20 -53 0 -99 5 -103 9
-3 5 -13 11 -21 13 -21 5 -231 2 -240 -4 -4 -2 -81 -7 -171 -9 -300 -10 -532
-38 -714 -88 -38 -11 -97 -25 -130 -32 -33 -7 -96 -30 -140 -50 -44 -21 -114
-54 -155 -73 -134 -63 -205 -97 -210 -103 -14 -15 -71 -50 -80 -50 -6 0 -13
-7 -16 -15 -4 -8 -12 -15 -19 -15 -7 0 -15 -6 -18 -12 -2 -7 -8 -9 -13 -5 -17
16 170 189 379 351 48 37 87 71 87 76 0 18 -108 -27 -195 -81 -64 -39 -134
-71 -148 -66 -6 2 6 14 28 26 22 12 54 30 70 40 17 11 62 36 100 55 39 20 94
50 124 67 65 36 297 128 456 181 373 122 656 180 990 202 97 6 411 3 535 -5z
m-31 -465 c4 3 8 -2 8 -10 0 -9 -4 -11 -10 -5 -5 5 -16 7 -23 4 -8 -3 -14 -1
-14 5 0 13 24 22 28 10 2 -4 7 -6 11 -4z m58 -26 c-3 -8 -6 -5 -6 6 -1 11 2
17 5 13 3 -3 4 -12 1 -19z m88 -56 c-3 -3 -11 0 -18 7 -9 10 -8 11 6 5 10 -3
15 -9 12 -12z m170 -72 c-3 -5 -14 -10 -23 -9 -14 0 -13 2 3 9 27 11 27 11 20
0z m265 -14 c0 -3 -4 -8 -10 -11 -5 -3 -10 -1 -10 4 0 6 5 11 10 11 6 0 10 -2
10 -4z m-210 -10 c0 -3 -4 -8 -10 -11 -5 -3 -10 -1 -10 4 0 6 5 11 10 11 6 0
10 -2 10 -4z m175 -6 c3 -5 -1 -10 -9 -10 -9 0 -16 5 -16 10 0 6 4 10 9 10 6
0 13 -4 16 -10z m-155 -30 c0 -5 -4 -10 -10 -10 -5 0 -10 5 -10 10 0 6 5 10
10 10 6 0 10 -4 10 -10z m160 -10 c0 -5 -5 -10 -11 -10 -5 0 -7 5 -4 10 3 6 8
10 11 10 2 0 4 -4 4 -10z m189 -79 c10 -7 7 -9 -12 -8 -14 1 -23 5 -20 10 6 9
15 9 32 -2z m86 -63 c6 -4 2 -8 -7 -8 -10 0 -18 7 -18 17 0 9 3 12 8 7 4 -5
12 -12 17 -16z m180 -59 c11 -17 -1 -21 -15 -4 -8 9 -8 15 -2 15 6 0 14 -5 17
-11z m95 -259 c0 -5 -4 -10 -10 -10 -5 0 -10 5 -10 10 0 6 5 10 10 10 6 0 10
-4 10 -10z m40 -20 c0 -5 -2 -10 -4 -10 -3 0 -8 5 -11 10 -3 6 -1 10 4 10 6 0
11 -4 11 -10z m43 -4 c4 -10 1 -13 -8 -9 -8 3 -12 9 -9 14 7 12 11 11 17 -5z
m-58 -24 c-3 -3 -11 0 -18 7 -9 10 -8 11 6 5 10 -3 15 -9 12 -12z m35 -22 c0
-5 -4 -10 -10 -10 -5 0 -10 5 -10 10 0 6 5 10 10 10 6 0 10 -4 10 -10z m33 -3
c3 -8 -1 -14 -8 -14 -7 0 -11 6 -8 14 3 7 6 13 8 13 2 0 5 -6 8 -13z m108 -12
c0 -5 -5 -11 -12 -14 -7 -2 -9 1 -5 8 9 13 -30 11 -51 -2 -7 -5 -13 -4 -13 2
0 19 79 25 81 6z m87 -130 c17 -37 15 -41 -8 -12 -22 27 -25 37 -12 37 5 0 14
-11 20 -25z m-133 -15 c3 -5 2 -10 -4 -10 -5 0 -13 5 -16 10 -3 6 -2 10 4 10
5 0 13 -4 16 -10z m92 -12 c-3 -8 -6 -5 -6 6 -1 11 2 17 5 13 3 -3 4 -12 1
-19z m103 -90 c0 -18 -2 -20 -9 -8 -6 8 -7 18 -5 22 9 14 14 9 14 -14z m-10
-108 c0 -5 -5 -10 -11 -10 -5 0 -7 5 -4 10 3 6 8 10 11 10 2 0 4 -4 4 -10z
m90 -249 c0 -6 -4 -13 -10 -16 -5 -3 -10 1 -10 9 0 9 5 16 10 16 6 0 10 -4 10
-9z m144 -465 c-9 -24 -31 -26 -50 -5 -17 18 -16 19 19 19 27 0 35 -4 31 -14z
m32 -73 c-8 -8 -36 10 -36 23 0 11 4 10 20 -3 11 -9 18 -18 16 -20z m117 -304
c3 -13 1 -19 -6 -16 -15 5 -22 37 -9 37 5 0 12 -9 15 -21z m47 -159 c0 -5 -5
-10 -11 -10 -5 0 -7 5 -4 10 3 6 8 10 11 10 2 0 4 -4 4 -10z m180 -140 c0 -5
-8 -10 -17 -10 -15 0 -16 2 -3 10 19 12 20 12 20 0z m27 -32 c-3 -8 -6 -5 -6
6 -1 11 2 17 5 13 3 -3 4 -12 1 -19z m240 -314 c-3 -3 -12 -4 -19 -1 -8 3 -5
6 6 6 11 1 17 -2 13 -5z m-107 -14 c0 -5 -2 -10 -4 -10 -3 0 -8 5 -11 10 -3 6
-1 10 4 10 6 0 11 -4 11 -10z m97 -156 c-3 -3 -12 -4 -19 -1 -8 3 -5 6 6 6 11
1 17 -2 13 -5z m-406 -341 c13 -16 12 -17 -3 -4 -10 7 -18 15 -18 17 0 8 8 3
21 -13z m729 -3 c0 -5 -4 -10 -10 -10 -5 0 -10 5 -10 10 0 6 5 10 10 10 6 0
10 -4 10 -10z m-6620 -718 c0 -17 102 -335 125 -387 7 -16 24 -59 38 -95 14
-36 39 -95 56 -132 17 -36 31 -71 31 -76 0 -6 3 -12 8 -14 4 -1 26 -39 48 -83
238 -460 436 -731 817 -1116 31 -32 57 -63 57 -69 0 -5 5 -10 11 -10 10 0 78
-67 157 -155 25 -27 84 -85 131 -128 106 -96 120 -119 44 -71 -175 112 -393
295 -583 490 -412 423 -692 888 -859 1420 -65 207 -118 465 -92 450 6 -4 11
-15 11 -24z m6395 -1944 c-231 -253 -706 -574 -1080 -733 -49 -21 -101 -41
-115 -46 -14 -4 -70 -24 -124 -43 -55 -20 -110 -36 -123 -36 -13 0 -34 -6 -46
-14 -28 -18 -102 -33 -94 -19 4 6 20 13 37 16 16 4 49 15 72 26 24 10 71 28
105 40 143 48 440 186 602 280 199 115 708 483 785 568 6 7 15 12 20 13 5 0
-13 -24 -39 -52z m-4769 -443 c10 -8 15 -14 9 -14 -5 0 -19 6 -29 14 -11 8
-15 15 -10 15 6 0 19 -7 30 -15z"/>
<path d="M6108 8353 c6 -2 18 -2 25 0 6 3 1 5 -13 5 -14 0 -19 -2 -12 -5z"/>
<path d="M6510 8166 c0 -2 7 -7 16 -10 8 -3 12 -2 9 4 -6 10 -25 14 -25 6z"/>
<path d="M6590 8020 c0 -5 5 -10 11 -10 5 0 7 5 4 10 -3 6 -8 10 -11 10 -2 0
-4 -4 -4 -10z"/>
<path d="M6775 7840 c-3 -5 -2 -10 4 -10 5 0 13 5 16 10 3 6 2 10 -4 10 -5 0
-13 -4 -16 -10z"/>
<path d="M6835 7790 c3 -5 8 -10 11 -10 2 0 4 5 4 10 0 6 -5 10 -11 10 -5 0
-7 -4 -4 -10z"/>
<path d="M6845 7760 c-3 -5 -1 -10 4 -10 6 0 11 5 11 10 0 6 -2 10 -4 10 -3 0
-8 -4 -11 -10z"/>
<path d="M6920 7737 c0 -12 39 -46 44 -39 3 6 -5 17 -19 26 -14 9 -25 15 -25
13z"/>
<path d="M6960 7736 c0 -2 7 -7 16 -10 8 -3 12 -2 9 4 -6 10 -25 14 -25 6z"/>
<path d="M6975 7680 c3 -5 8 -10 11 -10 2 0 4 5 4 10 0 6 -5 10 -11 10 -5 0
-7 -4 -4 -10z"/>
<path d="M6860 7665 c0 -5 5 -17 10 -25 5 -8 10 -10 10 -5 0 6 -5 17 -10 25
-5 8 -10 11 -10 5z"/>
<path d="M6963 7611 c0 -11 5 -17 9 -15 4 3 8 0 8 -7 0 -7 2 -10 5 -8 7 7 -6
49 -16 49 -4 0 -7 -9 -6 -19z"/>
<path d="M6900 7601 c0 -5 7 -11 15 -15 8 -3 15 -1 15 3 0 5 -7 11 -15 15 -8
3 -15 1 -15 -3z"/>
<path d="M6960 7493 c0 -17 19 -35 29 -29 8 5 7 11 -3 22 -16 15 -26 18 -26 7z"/>
<path d="M7010 7430 c6 -11 13 -20 16 -20 2 0 0 9 -6 20 -6 11 -13 20 -16 20
-2 0 0 -9 6 -20z"/>
<path d="M7015 7370 c3 -5 15 -10 27 -10 15 0 18 -4 13 -17 -5 -15 -4 -16 6
-5 10 9 10 15 1 24 -15 15 -56 22 -47 8z"/>
<path d="M7010 7224 c0 -8 5 -12 10 -9 6 4 8 11 5 16 -9 14 -15 11 -15 -7z"/>
<path d="M7150 6701 c0 -6 5 -13 10 -16 6 -3 10 1 10 9 0 9 -4 16 -10 16 -5 0
-10 -4 -10 -9z"/>
<path d="M7200 6665 c0 -5 5 -17 10 -25 5 -8 10 -10 10 -5 0 6 -5 17 -10 25
-5 8 -10 11 -10 5z"/>
<path d="M7201 6613 c-1 -6 -11 -9 -23 -7 -13 2 -16 1 -8 -2 8 -4 28 -18 43
-30 16 -13 34 -24 40 -24 6 0 1 7 -11 16 -13 9 -27 26 -32 38 -5 11 -9 16 -9
9z"/>
<path d="M7230 6610 c0 -5 5 -10 11 -10 5 0 7 5 4 10 -3 6 -8 10 -11 10 -2 0
-4 -4 -4 -10z"/>
<path d="M7255 6490 c10 -11 20 -18 23 -16 5 6 -23 36 -34 36 -4 0 1 -9 11
-20z"/>
<path d="M7320 6410 c0 -5 5 -10 11 -10 5 0 7 5 4 10 -3 6 -8 10 -11 10 -2 0
-4 -4 -4 -10z"/>
<path d="M7380 6375 c0 -15 18 -40 24 -34 3 3 -1 14 -9 25 -8 10 -14 15 -15 9z"/>
<path d="M7378 6243 c-10 -2 -18 -12 -18 -20 0 -14 2 -14 19 1 18 16 20 16 40
-5 23 -25 29 -23 36 10 3 18 -1 21 -28 20 -18 -1 -40 -3 -49 -6z"/>
<path d="M8328 4913 c7 -3 16 -2 19 1 4 3 -2 6 -13 5 -11 0 -14 -3 -6 -6z"/>
</g>
</svg>
